<svg width="16" height="20" viewBox="0 0 16 20" fill="none" xmlns="http://www.w3.org/2000/svg">
<path d="M6.39989 0.799988C5.7417 0.799988 5.19989 1.34181 5.19989 1.99999V2.79999H2.06161C2.03915 2.79623 2.01641 2.7944 1.99364 2.79452C1.97426 2.79494 1.95494 2.79677 1.93582 2.79999H1.19989C1.14688 2.79924 1.09426 2.80903 1.04507 2.8288C0.995882 2.84856 0.951114 2.87791 0.913366 2.91512C0.875618 2.95234 0.845643 2.99669 0.825184 3.04559C0.804725 3.0945 0.794189 3.14698 0.794189 3.19999C0.794189 3.253 0.804725 3.30548 0.825184 3.35438C0.845643 3.40329 0.875618 3.44763 0.913366 3.48485C0.951114 3.52207 0.995882 3.55141 1.04507 3.57118C1.09426 3.59095 1.14688 3.60074 1.19989 3.59999H1.59989V18C1.59989 18.6582 2.1417 19.2 2.79989 19.2H13.1999C13.8581 19.2 14.3999 18.6582 14.3999 18V3.59999H14.7999C14.8529 3.60074 14.9055 3.59095 14.9547 3.57118C15.0039 3.55141 15.0487 3.52207 15.0864 3.48485C15.1242 3.44763 15.1541 3.40329 15.1746 3.35438C15.195 3.30548 15.2056 3.253 15.2056 3.19999C15.2056 3.14698 15.195 3.0945 15.1746 3.04559C15.1541 2.99669 15.1242 2.95234 15.0864 2.91512C15.0487 2.87791 15.0039 2.84856 14.9547 2.8288C14.9055 2.80903 14.8529 2.79924 14.7999 2.79999H14.0671C14.0239 2.79285 13.9798 2.79285 13.9366 2.79999H10.7999V1.99999C10.7999 1.34181 10.2581 0.799988 9.59988 0.799988H6.39989ZM6.39989 1.59999H9.59988C9.8217 1.59999 9.99989 1.77817 9.99989 1.99999V2.79999H5.99989V1.99999C5.99989 1.77817 6.17807 1.59999 6.39989 1.59999ZM2.39989 3.59999H5.5327C5.57589 3.60713 5.61997 3.60713 5.66317 3.59999H10.3327C10.3759 3.60713 10.42 3.60713 10.4632 3.59999H13.5999V18C13.5999 18.2218 13.4217 18.4 13.1999 18.4H2.79989C2.57807 18.4 2.39989 18.2218 2.39989 18V3.59999ZM5.59364 5.59452C5.48769 5.59618 5.38672 5.6398 5.3129 5.71582C5.23908 5.79183 5.19843 5.89403 5.19989 5.99999V16C5.19914 16.053 5.20893 16.1056 5.22869 16.1548C5.24846 16.204 5.2778 16.2488 5.31502 16.2865C5.35224 16.3243 5.39659 16.3542 5.44549 16.3747C5.49439 16.3951 5.54688 16.4057 5.59989 16.4057C5.6529 16.4057 5.70538 16.3951 5.75428 16.3747C5.80318 16.3542 5.84753 16.3243 5.88475 16.2865C5.92197 16.2488 5.95131 16.204 5.97108 16.1548C5.99084 16.1056 6.00064 16.053 5.99989 16V5.99999C6.00062 5.94647 5.99061 5.89335 5.97044 5.84378C5.95027 5.7942 5.92036 5.74918 5.88248 5.71137C5.8446 5.67356 5.79952 5.64374 5.7499 5.62366C5.70029 5.60359 5.64715 5.59368 5.59364 5.59452ZM7.99364 5.59452C7.88769 5.59618 7.78672 5.6398 7.7129 5.71582C7.63908 5.79183 7.59843 5.89403 7.59989 5.99999V16C7.59914 16.053 7.60893 16.1056 7.62869 16.1548C7.64846 16.204 7.6778 16.2488 7.71502 16.2865C7.75224 16.3243 7.79659 16.3542 7.84549 16.3747C7.89439 16.3951 7.94688 16.4057 7.99989 16.4057C8.0529 16.4057 8.10538 16.3951 8.15428 16.3747C8.20318 16.3542 8.24753 16.3243 8.28475 16.2865C8.32197 16.2488 8.35131 16.204 8.37108 16.1548C8.39084 16.1056 8.40063 16.053 8.39989 16V5.99999C8.40062 5.94647 8.39061 5.89335 8.37044 5.84378C8.35027 5.7942 8.32036 5.74918 8.28248 5.71137C8.2446 5.67356 8.19952 5.64374 8.1499 5.62366C8.10029 5.60359 8.04715 5.59368 7.99364 5.59452ZM10.3936 5.59452C10.2877 5.59618 10.1867 5.6398 10.1129 5.71582C10.0391 5.79183 9.99843 5.89403 9.99989 5.99999V16C9.99914 16.053 10.0089 16.1056 10.0287 16.1548C10.0485 16.204 10.0778 16.2488 10.115 16.2865C10.1522 16.3243 10.1966 16.3542 10.2455 16.3747C10.2944 16.3951 10.3469 16.4057 10.3999 16.4057C10.4529 16.4057 10.5054 16.3951 10.5543 16.3747C10.6032 16.3542 10.6475 16.3243 10.6847 16.2865C10.722 16.2488 10.7513 16.204 10.7711 16.1548C10.7908 16.1056 10.8006 16.053 10.7999 16V5.99999C10.8006 5.94647 10.7906 5.89335 10.7704 5.84378C10.7503 5.7942 10.7204 5.74918 10.6825 5.71137C10.6446 5.67356 10.5995 5.64374 10.5499 5.62366C10.5003 5.60359 10.4471 5.59368 10.3936 5.59452Z" fill="#FF0B37"/>
</svg>
