<svg width="26" height="28" viewBox="0 0 26 28" fill="none" xmlns="http://www.w3.org/2000/svg">
<path d="M13 0.200012C10.3563 0.200012 8.20002 2.35626 8.20002 5.00001C8.20002 7.64376 10.3563 9.80001 13 9.80001C15.6438 9.80001 17.8 7.64376 17.8 5.00001C17.8 2.35626 15.6438 0.200012 13 0.200012ZM13 1.40001C14.9946 1.40001 16.6 3.00548 16.6 5.00001C16.6 6.99454 14.9946 8.60001 13 8.60001C11.0055 8.60001 9.40002 6.99454 9.40002 5.00001C9.40002 3.00548 11.0055 1.40001 13 1.40001ZM9.99065 10.9906C9.96018 10.993 9.93206 10.9953 9.90159 11H8.80002C7.6844 11 6.75393 11.3891 6.0719 11.8203C5.38987 12.2516 4.96331 12.7016 4.7594 12.9711C3.62971 14.4711 1.1219 18.5844 1.1219 18.5844C1.11956 18.5867 1.11721 18.5891 1.11487 18.5938C0.657837 19.3766 0.388306 20.1383 0.437525 20.9164C0.486743 21.6922 0.873462 22.4188 1.52971 23.0727L4.30002 25.8453C5.08987 26.6352 6.32268 26.6656 7.19221 26.0117L7.30237 27.2539C7.31877 27.4695 7.44768 27.6594 7.64456 27.7531C7.84143 27.8445 8.07112 27.8258 8.24924 27.6992C8.42502 27.5727 8.52112 27.3617 8.49768 27.1461L7.59534 16.9461C7.5719 16.6977 7.39846 16.4891 7.1594 16.4234C6.91799 16.3555 6.66018 16.4445 6.51252 16.6461L3.93909 20.1734C3.76565 20.4125 3.79143 20.743 4.00002 20.9516L6.5969 23.5484C7.00237 23.9539 7.00237 24.5914 6.5969 24.9969C6.19143 25.4024 5.55393 25.4024 5.15081 24.9969L2.37815 22.2242C1.86018 21.7063 1.66331 21.282 1.63518 20.8367C1.60706 20.3938 1.76174 19.8664 2.15315 19.1984C2.16252 19.182 4.71721 15.0195 5.71799 13.693C5.71799 13.693 5.71799 13.693 5.71799 13.6906C5.79299 13.5922 6.17034 13.1774 6.71174 12.8352C7.25549 12.493 7.96565 12.2 8.80002 12.2H9.59924L12.1305 18.275L11.2211 20.7008C11.1485 20.8977 11.2563 21.1133 11.4625 21.1813L13.2039 21.7789C13.4102 21.8469 13.6352 21.7461 13.7102 21.5492L14.7766 18.6992C14.8492 18.5024 14.7438 18.2867 14.5375 18.2188L13.975 18.0242L16.4008 12.2H17.2C18.0344 12.2 18.7446 12.493 19.2883 12.8352C19.8297 13.1774 20.2071 13.5922 20.2821 13.6906C20.2821 13.693 20.2821 13.693 20.2821 13.693C21.2828 15.0195 23.8375 19.182 23.8469 19.1984C24.2383 19.8664 24.393 20.3938 24.3649 20.8367C24.3367 21.282 24.1399 21.7063 23.6219 22.2242L20.8492 24.9969C20.4461 25.4024 19.8086 25.4024 19.4031 24.9969C18.9977 24.5914 18.9977 23.9539 19.4031 23.5484L22 20.9516C22.2086 20.743 22.2344 20.4125 22.0586 20.1734L19.4875 16.6461C19.3399 16.4445 19.0821 16.3555 18.8406 16.4234C18.6016 16.4891 18.4281 16.6977 18.4047 16.9461L17.5024 27.1461C17.4789 27.3617 17.575 27.5727 17.7508 27.6992C17.9289 27.8258 18.1586 27.8445 18.3555 27.7531C18.5524 27.6594 18.6813 27.4695 18.6977 27.2539L18.8078 26.0117C19.6774 26.6656 20.9102 26.6352 21.7 25.8453L24.4727 23.0727C25.1266 22.4188 25.5133 21.6922 25.5625 20.9164C25.6117 20.1383 25.3422 19.3766 24.8852 18.5938C24.8828 18.5891 24.8805 18.5867 24.8781 18.5844C24.8781 18.5844 22.3703 14.4711 21.2406 12.9711C21.0367 12.7016 20.6102 12.2516 19.9281 11.8203C19.2461 11.3891 18.3156 11 17.2 11H10.0938C10.0586 10.9953 10.0258 10.9906 9.99065 10.9906ZM10.9 12.2H15.1L13 17.2391L10.9 12.2ZM6.54065 18.6453L6.84768 22.1L5.21174 20.4664L6.54065 18.6453ZM19.4594 18.6453L20.7883 20.4664L19.1524 22.1L19.4594 18.6453Z" fill="black"/>
</svg>
