<svg width="28" height="28" viewBox="0 0 28 28" fill="none" xmlns="http://www.w3.org/2000/svg">
<path d="M14 0.200012C6.38552 0.200012 0.199951 6.38559 0.199951 14C0.199951 21.6144 6.38552 27.8 14 27.8C21.6144 27.8 27.7999 21.6144 27.7999 14C27.7999 6.38559 21.6144 0.200012 14 0.200012ZM14 1.40001C20.9658 1.40001 26.5999 7.03412 26.5999 14C26.5999 20.9659 20.9658 26.6 14 26.6C7.03405 26.6 1.39995 20.9659 1.39995 14C1.39995 13.7823 1.40548 13.5657 1.41636 13.3508C1.75341 6.68729 7.25173 1.40001 14 1.40001ZM13.9906 2.59181C13.8317 2.59429 13.6802 2.65973 13.5695 2.77376C13.4587 2.88778 13.3978 3.04108 13.4 3.20001V5.63282C11.6412 5.75796 9.91957 6.43429 8.50737 7.659L6.78706 5.93868C6.73115 5.88121 6.66428 5.83552 6.59041 5.80432C6.51654 5.77312 6.43717 5.75705 6.35698 5.75704C6.23762 5.75707 6.12098 5.7927 6.02198 5.85937C5.92297 5.92604 5.8461 6.02072 5.80118 6.1313C5.75627 6.24189 5.74536 6.36336 5.76984 6.48018C5.79432 6.59701 5.85309 6.70387 5.93862 6.78712L8.06089 8.90939C8.12162 8.97261 8.19546 9.02176 8.27723 9.05338C8.359 9.08499 8.4467 9.09831 8.53417 9.09239C8.62163 9.08647 8.70674 9.06146 8.7835 9.01911C8.86026 8.97676 8.92681 8.91811 8.97847 8.84728C10.3542 7.50607 12.126 6.82407 13.9074 6.80118C13.968 6.81052 14.0296 6.81052 14.0902 6.80118C15.8708 6.82345 17.6432 7.50424 19.0191 8.84376C19.0704 8.91523 19.1369 8.97452 19.2137 9.01744C19.2906 9.06036 19.3759 9.08586 19.4637 9.09212C19.5515 9.09838 19.6395 9.08526 19.7217 9.05368C19.8038 9.0221 19.878 8.97284 19.939 8.90939L22.0613 6.78712C22.148 6.70284 22.2072 6.59434 22.2312 6.47583C22.2551 6.35732 22.2428 6.23432 22.1956 6.12297C22.1485 6.01162 22.0688 5.9171 21.9671 5.85181C21.8653 5.78651 21.7462 5.75348 21.6253 5.75704C21.4695 5.76169 21.3215 5.82684 21.2128 5.93868L19.4937 7.65782C18.0815 6.43344 16.3586 5.75794 14.6 5.63282V3.20001C14.601 3.11974 14.586 3.04006 14.5558 2.9657C14.5255 2.89133 14.4807 2.82379 14.4238 2.76708C14.367 2.71037 14.2994 2.66563 14.225 2.63553C14.1506 2.60542 14.0708 2.59056 13.9906 2.59181ZM3.70737 11.3352V18.2645H6.83979V17.0961H5.05854V15.2176H6.63706V14.0973H5.05854V12.5047H6.72144V11.3352H3.70737ZM21.3664 11.3352V18.2645H22.7164V15.4063H24.2785V14.2859H22.7164V12.5047H24.3804V11.3352H21.3664ZM19.3484 12.6945C19.3086 12.6888 19.2644 12.697 19.223 12.7238L13.3601 16.5172C13.0797 16.617 12.8325 16.7725 12.6511 16.9766C12.3412 17.3253 12.2 17.7667 12.2 18.2C12.2 18.6333 12.3412 19.0747 12.6511 19.4234C12.9611 19.7722 13.45 20 14 20C14.5499 20 15.0388 19.7722 15.3488 19.4234C15.5106 19.2414 15.6242 19.0335 15.698 18.8152L19.4761 12.977C19.5567 12.8528 19.4679 12.7117 19.3484 12.6945ZM14 17.6C14.25 17.6 14.3611 17.6722 14.4511 17.7734C14.5412 17.8747 14.6 18.0333 14.6 18.2C14.6 18.3667 14.5412 18.5253 14.4511 18.6266C14.3611 18.7279 14.25 18.8 14 18.8C13.75 18.8 13.6388 18.7279 13.5488 18.6266C13.4587 18.5253 13.4 18.3667 13.4 18.2C13.4 18.0333 13.4587 17.8747 13.5488 17.7734C13.6388 17.6722 13.75 17.6 14 17.6Z" fill="black"/>
</svg>
