<svg width="80" height="80" viewBox="0 0 80 80" fill="none" xmlns="http://www.w3.org/2000/svg">
<circle cx="40" cy="40" r="40" fill="#E18DFF"/>
<path d="M45.1112 17.8424C44.5779 17.8424 44.0486 18.0444 43.6486 18.4444L41.491 20.602C40.691 21.402 40.691 22.7273 41.491 23.5273L46.6991 28.7353L29.5435 45.8909L24.4041 40.7515C24.0041 40.3515 23.4748 40.1495 22.9415 40.1495C22.4082 40.1495 21.8789 40.3515 21.4789 40.7515L19.3213 42.9091C18.5213 43.7091 18.5213 45.0343 19.3213 45.8343L21.3577 47.8707L19.289 49.9394C18.489 50.7394 18.489 52.0646 19.289 52.8646L20.9294 54.505L19.592 55.8424C18.388 57.0464 18.388 59.0262 19.592 60.2303L19.7698 60.4081C20.9738 61.6121 22.9536 61.6121 24.1577 60.4081L25.495 59.0707L27.1354 60.7111C27.9354 61.5111 29.2607 61.5111 30.0607 60.7111L32.1294 58.6424L34.19 60.703C34.99 61.503 36.3152 61.503 37.1152 60.703L39.2728 58.5454C40.0728 57.7454 40.0728 56.4202 39.2728 55.6202L34.1092 50.4566L51.2647 33.301L56.4526 38.4848C57.2486 39.2848 58.5779 39.2848 59.3779 38.4848L61.5314 36.3313C62.3314 35.5313 62.3314 34.202 61.5314 33.406L59.4506 31.3212L61.5193 29.2525C62.3193 28.4525 62.3193 27.1273 61.5193 26.3273L59.8789 24.6869L61.2162 23.3495C62.4203 22.1454 62.4203 20.1656 61.2162 18.9616L61.0385 18.7838C60.4364 18.1818 59.6405 17.8828 58.8445 17.8828C58.0486 17.8828 57.2526 18.1818 56.6506 18.7838L55.3132 20.1212L53.6728 18.4808C53.2728 18.0808 52.7435 17.8828 52.2102 17.8828C51.6768 17.8788 51.1475 18.0808 50.7475 18.4808L48.6789 20.5495L46.5738 18.4444C46.1738 18.0444 45.6445 17.8464 45.1112 17.8424ZM45.1112 19.9071L60.0688 34.8646H60.0728L57.9112 37.0222L42.9536 22.0646L45.1112 19.9071ZM58.8445 19.9353C59.1071 19.9353 59.3698 20.0404 59.5758 20.2464L59.7536 20.4242C60.1657 20.8363 60.1657 21.4747 59.7536 21.8869L58.4162 23.2242L56.7758 21.5838L58.1132 20.2464C58.3193 20.0404 58.5819 19.9353 58.8445 19.9353ZM52.2061 19.9434H52.2102L60.0566 27.7899L57.988 29.8586L50.1415 22.0121L52.2061 19.9434ZM48.1617 30.198L49.8021 31.8384L32.6465 48.9939L31.0061 47.3535L48.1617 30.198ZM22.9415 42.2141L37.8102 57.0828L35.6526 59.2404L20.7839 44.3717L22.9415 42.2141ZM22.8203 49.3333L30.6667 57.1798L28.5981 59.2485L20.7516 51.402L22.8203 49.3333ZM22.392 55.9677L24.0324 57.6081L22.695 58.9454C22.2829 59.3576 21.6445 59.3576 21.2324 58.9454L21.0546 58.7677C20.6425 58.3555 20.6425 57.7172 21.0546 57.305L22.392 55.9677Z" fill="white"/>
</svg>
