<svg width="28" height="28" viewBox="0 0 28 28" fill="none" xmlns="http://www.w3.org/2000/svg">
<path d="M14 0.200012C6.38553 0.200012 0.199951 6.38559 0.199951 14C0.199951 21.6144 6.38553 27.8 14 27.8C21.6144 27.8 27.7999 21.6144 27.7999 14C27.7999 6.38559 21.6144 0.200012 14 0.200012ZM14 1.40001C20.9658 1.40001 26.5999 7.03412 26.5999 14C26.5999 20.9659 20.9658 26.6 14 26.6C7.03406 26.6 1.39995 20.9659 1.39995 14C1.39995 7.03412 7.03406 1.40001 14 1.40001ZM21.2234 5.59415C21.1362 5.59164 21.0495 5.60816 20.9694 5.64257C20.8892 5.67697 20.8176 5.72843 20.7593 5.79337L14.7101 12.3465C14.4858 12.25 14.2442 12.2002 14 12.2C13.5226 12.2 13.0647 12.3897 12.7272 12.7272C12.3896 13.0648 12.2 13.5226 12.2 14C12.2 14.4774 12.3896 14.9352 12.7272 15.2728C13.0647 15.6104 13.5226 15.8 14 15.8C14.1005 15.8002 14.2008 15.792 14.3 15.7754L16.475 19.6918C16.5133 19.7608 16.5648 19.8215 16.6266 19.8705C16.6884 19.9196 16.7592 19.956 16.8351 19.9776C16.9109 19.9993 16.9903 20.0058 17.0686 19.9968C17.147 19.9878 17.2228 19.9634 17.2918 19.9251C17.3607 19.8868 17.4215 19.8352 17.4705 19.7734C17.5195 19.7116 17.5559 19.6408 17.5776 19.5649C17.5992 19.4891 17.6057 19.4097 17.5967 19.3313C17.5877 19.253 17.5633 19.1772 17.525 19.1082L15.3476 15.1906C15.6385 14.8622 15.7993 14.4388 15.8 14C15.7998 13.7071 15.7282 13.4187 15.5914 13.1598L21.6406 6.60665C21.7202 6.52264 21.7738 6.41739 21.7949 6.30361C21.8161 6.18982 21.8039 6.07234 21.7598 5.96533C21.7157 5.85832 21.6416 5.76634 21.5464 5.70048C21.4513 5.63463 21.3391 5.5977 21.2234 5.59415Z" fill="black"/>
</svg>
