<svg width="20" height="20" viewBox="0 0 20 20" fill="none" xmlns="http://www.w3.org/2000/svg">
<path d="M10 0.800003C4.92386 0.800003 0.800049 4.92382 0.800049 10C0.800049 11.6316 1.24752 13.1544 1.9938 14.4836L0.814893 18.6922C0.796058 18.7595 0.795207 18.8306 0.812424 18.8984C0.829641 18.9662 0.864325 19.0283 0.913017 19.0785C0.961708 19.1287 1.02271 19.1652 1.08993 19.1845C1.15715 19.2038 1.22826 19.2051 1.29614 19.1883L5.68442 18.1008C6.9739 18.7892 8.43709 19.2 10 19.2C15.0762 19.2 19.2 15.0762 19.2 10C19.2 4.92382 15.0762 0.800003 10 0.800003ZM10 1.6C14.6439 1.6 18.4 5.35619 18.4 10C18.4 14.6438 14.6439 18.4 10 18.4C8.51126 18.4 7.1169 18.0119 5.90474 17.3336C5.81608 17.2841 5.7119 17.2701 5.61333 17.2945L1.77036 18.2469L2.80083 14.5703C2.81558 14.5184 2.81965 14.464 2.8128 14.4104C2.80595 14.3568 2.78833 14.3052 2.76099 14.2586C2.02432 13.0094 1.60005 11.556 1.60005 10C1.60005 5.35619 5.35624 1.6 10 1.6ZM6.65708 5.2C6.40066 5.2 6.03447 5.2954 5.73364 5.61953C5.55296 5.81422 4.80005 6.54781 4.80005 7.8375C4.80005 9.18211 5.73261 10.3423 5.84536 10.4914H5.84614V10.4922C5.83545 10.4781 5.98926 10.7009 6.19458 10.968C6.3999 11.2351 6.68701 11.5859 7.04771 11.9656C7.76909 12.7252 8.78336 13.603 10.0422 14.1398C10.622 14.3867 11.0793 14.5358 11.4258 14.6445C12.068 14.8462 12.6529 14.8155 13.0922 14.7508C13.4211 14.7024 13.7828 14.5444 14.1407 14.318C14.4985 14.0915 14.8493 13.8099 15.004 13.382C15.1148 13.0753 15.1711 12.7918 15.1915 12.5586C15.2016 12.442 15.2029 12.339 15.1954 12.2438C15.1878 12.1485 15.1959 12.0755 15.1071 11.9297C14.9209 11.6239 14.71 11.6159 14.4899 11.507C14.3676 11.4465 14.0195 11.2765 13.6704 11.1102C13.3216 10.944 13.0196 10.7968 12.8336 10.7305C12.7161 10.6882 12.5727 10.6273 12.3657 10.6508C12.1587 10.6742 11.9542 10.8236 11.8352 11C11.7224 11.1672 11.2682 11.7033 11.1297 11.8609C11.1279 11.8598 11.1399 11.8654 11.0852 11.8383C10.914 11.7535 10.7045 11.6815 10.3946 11.518C10.0846 11.3545 9.69695 11.1131 9.27271 10.7391V10.7383C8.64126 10.1824 8.19896 9.48445 8.05942 9.25C8.06882 9.23882 8.05831 9.25236 8.07817 9.23282L8.07896 9.23203C8.22156 9.09157 8.34794 8.92381 8.45474 8.80078C8.60615 8.62635 8.67297 8.47258 8.74536 8.32891C8.88963 8.04258 8.8093 7.7275 8.72583 7.56172V7.56094C8.73159 7.57241 8.68068 7.46007 8.62583 7.33047C8.57083 7.20051 8.50071 7.03202 8.42583 6.85235C8.27606 6.493 8.10886 6.08997 8.00942 5.85391V5.85313C7.89229 5.57508 7.73381 5.37477 7.52661 5.27813C7.31942 5.18149 7.13636 5.20896 7.12896 5.2086H7.12817C6.98032 5.20178 6.81806 5.2 6.65708 5.2ZM6.65708 6C6.8113 6 6.96333 6.00188 7.09067 6.00782C7.22167 6.01434 7.21352 6.01488 7.18833 6.00313C7.16273 5.99119 7.19746 5.98732 7.27192 6.16407C7.36929 6.39521 7.53732 6.7997 7.68755 7.16016C7.76266 7.34039 7.83297 7.50953 7.88911 7.64219C7.94526 7.77485 7.97568 7.84892 8.01099 7.91953V7.92032L8.01177 7.9211C8.04638 7.9894 8.04332 7.94567 8.0313 7.96953C7.94689 8.13707 7.93543 8.1782 7.85005 8.27657C7.72004 8.42634 7.58743 8.59336 7.51724 8.6625C7.45582 8.72283 7.34502 8.81682 7.27583 9.00078C7.20654 9.18503 7.23888 9.43783 7.35005 9.62657C7.49806 9.87784 7.98581 10.6717 8.7438 11.3391C9.22115 11.7599 9.66587 12.0384 10.0211 12.2258C10.3764 12.4132 10.6658 12.5226 10.7305 12.5547C10.8843 12.6308 11.0523 12.6899 11.2477 12.6664C11.4431 12.6429 11.6116 12.5244 11.7188 12.4031L11.7196 12.4023C11.8623 12.2405 12.2864 11.7563 12.4899 11.4578C12.4985 11.4609 12.4957 11.4585 12.5633 11.4828V11.4836H12.5641C12.595 11.4946 12.9818 11.6677 13.3266 11.832C13.6715 11.9964 14.0215 12.1672 14.1352 12.2234C14.2993 12.3047 14.3769 12.3576 14.3969 12.3578C14.3983 12.393 14.3996 12.4311 14.3946 12.4891C14.3806 12.6497 14.3376 12.8721 14.2516 13.1102C14.2095 13.2267 13.9901 13.4671 13.7133 13.6422C13.4366 13.8173 13.0998 13.941 12.975 13.9594C12.6 14.0146 12.1547 14.0348 11.6657 13.8813C11.3266 13.7748 10.9038 13.637 10.3563 13.4039C9.24597 12.9304 8.30229 12.1246 7.62817 11.4148C7.29112 11.06 7.02107 10.7296 6.82896 10.4797C6.6372 10.2302 6.55346 10.1004 6.48364 10.0086L6.48286 10.0078C6.35893 9.84393 5.60005 8.78834 5.60005 7.8375C5.60005 6.8312 6.06745 6.43658 6.32036 6.16407C6.45314 6.021 6.5983 6 6.65708 6Z" fill="#0BC71E"/>
</svg>
